<?xml version="1.0" encoding="UTF-8"?>
<svg version="1.1" xmlns="http://www.w3.org/2000/svg" width="64" height="64">
<path d="M0 0 C8.34468007 4.97590182 13.53387008 11.86345977 16.109375 21.2578125 C17.10789012 32.35758522 16.45884702 41.9922991 9.359375 51.0703125 C3.70168013 57.1280464 -3.34488592 60.84888618 -11.625 61.59375 C-22.35447774 61.83515993 -31.19802606 60.58332943 -39.359375 52.9609375 C-46.75303791 44.73737365 -48.47252567 36.02335615 -48.203125 25.24609375 C-47.72879865 16.86039919 -44.11592977 9.8548755 -37.890625 4.2578125 C-27.15195714 -3.81766573 -12.32399863 -5.91386512 0 0 Z " fill="#FFA54A" transform="translate(47.890625,2.7421875)"/>
<path d="M0 0 C0 1.98 0 3.96 0 6 C-0.99 6 -1.98 6 -3 6 C-3.33 7.32 -3.66 8.64 -4 10 C-5.98 10 -7.96 10 -10 10 C-10.33 11.65 -10.66 13.3 -11 15 C-15.62 15 -20.24 15 -25 15 C-25.33 13.35 -25.66 11.7 -26 10 C-27.98 10 -29.96 10 -32 10 C-32.33 8.68 -32.66 7.36 -33 6 C-33.99 6 -34.98 6 -36 6 C-36 4.02 -36 2.04 -36 0 C-23.91043064 -1.20709986 -12.10811094 -0.77151812 0 0 Z " fill="#FFC992" transform="translate(50,14)"/>
<path d="M0 0 C3.63 0 7.26 0 11 0 C10.48636193 3.76667915 9.73730949 6.64120164 8 10 C8 10.99 8 11.98 8 13 C8.99 12.34 9.98 11.68 11 11 C10.67 11.99 10.34 12.98 10 14 C10.99 14 11.98 14 13 14 C13 14.66 13 15.32 13 16 C15.64 16.33 18.28 16.66 21 17 C21 18.32 21 19.64 21 21 C11.1 21 1.2 21 -9 21 C-9 19.68 -9 18.36 -9 17 C-5.92382812 16.70703125 -5.92382812 16.70703125 -2.84765625 16.4140625 C-2.23792969 16.27742188 -1.62820312 16.14078125 -1 16 C-0.67 15.34 -0.34 14.68 0 14 C0.33 13.67 0.66 13.34 1 13 C1.33 12.34 1.66 11.68 2 11 C2.66 11.66 3.32 12.32 4 13 C3.48553951 8.57563975 2.38617933 5.73488939 0 2 C0 1.34 0 0.68 0 0 Z " fill="#FFFCFA" transform="translate(26,30)"/>
<path d="M0 0 C9.9 0 19.8 0 30 0 C30 1.32 30 2.64 30 4 C20.1 4 10.2 4 0 4 C0 2.68 0 1.36 0 0 Z " fill="#FFFAF5" transform="translate(17,47)"/>
<path d="M0 0 C4.95 0 9.9 0 15 0 C15 1.65 15 3.3 15 5 C10.05 5 5.1 5 0 5 C0 3.35 0 1.7 0 0 Z " fill="#FFFBF8" transform="translate(35,14)"/>
<path d="M0 0 C4.95 0 9.9 0 15 0 C15 1.65 15 3.3 15 5 C10.05 5 5.1 5 0 5 C0 3.35 0 1.7 0 0 Z " fill="#FFFBF8" transform="translate(14,14)"/>
<path d="M0 0 C5.28 0 10.56 0 16 0 C15.67 1.32 15.34 2.64 15 4 C10.38 4 5.76 4 1 4 C0.67 2.68 0.34 1.36 0 0 Z " fill="#FFF8F1" transform="translate(24,25)"/>
<path d="M0 0 C0.99 0.66 1.98 1.32 3 2 C5.63434254 1.67873872 7.62710097 1.18644952 10 0 C9.67 0.99 9.34 1.98 9 3 C9.99 3 10.98 3 12 3 C12 3.66 12 4.32 12 5 C9.32356043 5.89214652 7.74615622 6.13540211 5 6.125 C3.9790625 6.12886719 3.9790625 6.12886719 2.9375 6.1328125 C1 6 1 6 -2 5 C-1 3 -1 3 0 2 C0 1.34 0 0.68 0 0 Z " fill="#FFCF9F" transform="translate(27,41)"/>
<path d="M0 0 C1.32 0 2.64 0 4 0 C4 3.3 4 6.6 4 10 C2.68 10 1.36 10 0 10 C0 6.7 0 3.4 0 0 Z " fill="#FFFFFF" transform="translate(30,13)"/>
<path d="M0 0 C3.63 0 7.26 0 11 0 C10.67 1.32 10.34 2.64 10 4 C7.03 4 4.06 4 1 4 C0.67 2.68 0.34 1.36 0 0 Z " fill="#FFE2C4" transform="translate(26,30)"/>
<path d="M0 0 C3.63 0 7.26 0 11 0 C11 0.99 11 1.98 11 3 C7.37 3 3.74 3 0 3 C0 2.01 0 1.02 0 0 Z " fill="#FFF8F2" transform="translate(35,20)"/>
<path d="M0 0 C3.63 0 7.26 0 11 0 C11 0.99 11 1.98 11 3 C7.37 3 3.74 3 0 3 C0 2.01 0 1.02 0 0 Z " fill="#FFF8F2" transform="translate(18,20)"/>
<path d="M0 0 C1.98 0 3.96 0 6 0 C5.34 1.98 4.68 3.96 4 6 C3.34 6 2.68 6 2 6 C1.34 4.02 0.68 2.04 0 0 Z " fill="#FFE9D2" transform="translate(29,36)"/>
</svg>
